# xmcd
#
# Track frame offsets:
#	150
#	34655
#	51254
#	68818
#	99025
#	120194
#	144316
#
# Disc length: 2280 seconds
#
# Revision: 1
# Processed by: cddbd v1.5.1PL0 Copyright (c) Steve Scherf et al.
# Submitted via: CDex 1.50Beta5
#
DISCID=4f08e607
DTITLE=ｔｈｅｅ　ｍｉｃｈｅｌｌｅ　ｇｕｎ　ｅｌｅｐｈａｎｔ - Ｓａｂｒｉｎａ　Ｎｏ　Ｈｅａｖｅｎ
DYEAR=1900
DGENRE=Rock
TTITLE0=チェルシー
TTITLE1=ミッドナイトクラクションベイビー
TTITLE2=デッドマンズギャラクシーデイズ
TTITLE3=水色の水
TTITLE4=Ｒｉｎｋ
TTITLE5=夜が終わる
TTITLE6=Ｇｉｒｌ　Ｆｒｉｅｎｄ
EXTD=
EXTT0=
EXTT1=
EXTT2=
EXTT3=
EXTT4=
EXTT5=
EXTT6=
PLAYORDER=
